name analog
datacolumns 19
datarows 18
range 0.0 0.0085
endheader
time	ground_force_vx	ground_force_vy	ground_force_vz	ground_force_px	ground_force_py	ground_force_pz	l_ground_force_vx	l_ground_force_vy	l_ground_force_vz	l_ground_force_px	l_ground_force_py	l_ground_force_pz	ground_torque_x	ground_torque_y	ground_torque_z	l_ground_torque_x	l_ground_torque_y	l_ground_torque_z
0.0	-0.0	-0.0	-0.0	3.8360519409179688	11.641190528869627	-173.0120849609375	-4.978855133056641	-15.539114952087402	-472.1834716796875	-0.0	-0.0	-0.0	-0.0	-0.0	-0.0	126157.3203125	-21620.927734375	-3500.45361328125
0.0005	-0.0	-0.0	-0.0	4.264452934265137	11.063926696777344	-172.5652313232422	-5.056514739990234	-15.726823806762695	-473.51556396484375	-0.0	-0.0	-0.0	-0.0	-0.0	-0.0	126300.59375	-21493.880859375	-3474.5458984375
0.001	-0.0	-0.0	-0.0	4.103683471679688	11.343385696411133	-171.880615234375	-4.28078031539917	-15.969303131103516	-473.66497802734375	-0.0	-0.0	-0.0	-0.0	-0.0	-0.0	126441.8125	-20964.345703125	-3362.926513671875
0.0015	-0.0	-0.0	-0.0	4.276072025299072	11.479741096496582	-172.9148712158203	-4.713143825531006	-15.963380813598633	-473.4947509765625	-0.0	-0.0	-0.0	-0.0	-0.0	-0.0	126366.640625	-21039.228515625	-3446.517578125
0.002	-0.0	-0.0	-0.0	4.109780311584473	11.42696475982666	-171.3646697998047	-4.524250030517578	-15.7385835647583	-472.7741088867188	-0.0	-0.0	-0.0	-0.0	-0.0	-0.0	126379.359375	-21130.26171875	-3493.995361328125
0.0025	-0.0	-0.0	-0.0	4.448178768157959	11.531441688537598	-171.90086364746094	-4.263994216918945	-15.70370864868164	-472.7975463867188	-0.0	-0.0	-0.0	-0.0	-0.0	-0.0	126188.2109375	-20972.546875	-3355.1279296875
0.003	-0.0	-0.0	-0.0	4.250921249389648	10.484336853027344	-172.70498657226562	-4.6248393058776855	-15.82140827178955	-471.07568359375	-0.0	-0.0	-0.0	-0.0	-0.0	-0.0	126167.109375	-20729.048828125	-3390.99462890625
0.0035	-0.0	-0.0	-0.0	4.371315002441406	11.12868309020996	-172.62998962402344	-4.358861446380615	-15.54461669921875	-472.3784790039063	-0.0	-0.0	-0.0	-0.0	-0.0	-0.0	125646.8046875	-20504.99609375	-3481.76513671875
0.004	-0.0	-0.0	-0.0	4.696232795715332	10.842190742492676	-172.15028381347656	-3.844996690750122	-15.46235466003418	-471.9571533203125	-0.0	-0.0	-0.0	-0.0	-0.0	-0.0	125888.015625	-20639.509765625	-3366.839599609375
0.0045000000000000005	-0.0	-0.0	-0.0	4.307893753051758	11.128417015075684	-172.0496826171875	-4.264266490936279	-15.291894912719728	-470.1516723632813	-0.0	-0.0	-0.0	-0.0	-0.0	-0.0	125683.734375	-20426.552734375	-3358.953125
0.005	-0.0	-0.0	-0.0	4.295154571533203	11.719578742980955	-173.66119384765625	-4.460443496704102	-15.456295013427734	-470.9810485839844	-0.0	-0.0	-0.0	-0.0	-0.0	-0.0	125259.0234375	-20607.720703125	-3359.135009765625
0.0055	-0.0	-0.0	-0.0	4.351529598236084	10.982807159423828	-173.71231079101562	-4.359419822692871	-15.058563232421877	-469.95806884765625	-0.0	-0.0	-0.0	-0.0	-0.0	-0.0	125519.8046875	-20315.712890625	-3570.820556640625
0.006	-0.0	-0.0	-0.0	3.951874494552612	11.339502334594728	-173.43768310546875	-4.397654056549072	-15.248024940490724	-469.6839599609375	-0.0	-0.0	-0.0	-0.0	-0.0	-0.0	125350.7421875	-20405.15234375	-3613.266845703125
0.006500000000000001	-0.0	-0.0	-0.0	4.2753753662109375	10.880632400512695	-173.79116821289062	-5.303360462188721	-15.292452812194824	-469.6848449707031	-0.0	-0.0	-0.0	-0.0	-0.0	-0.0	125357.9140625	-19906.990234375	-3597.005126953125
0.007	-0.0	-0.0	-0.0	4.096883296966553	11.670098304748535	-172.7588348388672	-5.487069606781006	-14.95871925354004	-470.605224609375	-0.0	-0.0	-0.0	-0.0	-0.0	-0.0	125523.6484375	-20003.560546875	-3592.7041015625
0.0075	-0.0	-0.0	-0.0	3.904629230499268	11.333304405212402	-173.90066528320312	-5.089398384094238	-15.273103713989258	-470.00982666015625	-0.0	-0.0	-0.0	-0.0	-0.0	-0.0	125484.21875	-19671.30078125	-3662.773681640625
0.008	-0.0	-0.0	-0.0	4.151248455047607	11.443365097045898	-176.4250946044922	-5.595418930053711	-15.34153175354004	-470.6040954589844	-0.0	-0.0	-0.0	-0.0	-0.0	-0.0	125554.3984375	-19681.923828125	-3667.654296875
0.0085	-0.0	-0.0	-0.0	3.732818126678467	11.997576713562012	-175.93911743164062	-5.506778717041016	-15.517894744873049	-469.418212890625	-0.0	-0.0	-0.0	-0.0	-0.0	-0.0	125126.109375	-19726.740234375	-3747.770751953125
